:version 1.10
:name ASF
:units
  mass 1
  length 1
  angle deg
:documentation
  ASF file generated by Kaydara
:root
  axis xyz
  order  tx ty tz rx ry rz
  position 0 0 0
  orientation 0 0 0
:bonedata
  begin
    id 1
    name RightUpLegDummy
    direction -1 2.30186e-007 8.31532e-007
    length 4.04083
    axis 0 0 0 xyz
  end
  begin
    id 2
    name RightUpLeg
    direction -0.000919234 -0.999985 0.00544864
    length 17.4221
    axis -3.80308 -0.00076134 -0.0523649 xyz
    dof rx ry rz
  end
  begin
    id 3
    name RightLeg
    direction -0.000919271 -0.999984 -0.00555045
    length 17.1239
    axis 4.00314 0.0181274 -0.183583 xyz
    dof rx ry rz
  end
  begin
    id 4
    name RightFoot
    direction -2.57843e-005 -4.04509e-007 1
    length 6.72091
    axis 8.18909e-005 -0.122003 -0.403008 xyz
    dof rx ry rz
  end
  begin
    id 5
    name RightToes
    direction 0.00116825 -0.014069 0.9999
    length 3.85082
    axis 0.000514414 0.540638 -0.356797 xyz
    dof rx ry rz
  end
  begin
    id 6
    name SpineDummy
    direction 0.0168869 0.966876 -0.254689
    length 6.99894
    axis 0 0 0 xyz
  end
  begin
    id 7
    name Spine
    direction -0.0132008 0.999903 0.00446247
    length 11.1999
    axis -0.00148109 0.00725429 0.756411 xyz
    dof rx ry rz
  end
  begin
    id 8
    name Spine1
    direction 0 0 0
    length 0
    axis -0.000934958 0.0245693 1.46543 xyz
    dof rx ry rz
  end
  begin
    id 9
    name HEadDummy
    direction -0.0255732 0.999672 0.00128215
    length 3.43865
    axis -0.000934958 0.0245693 1.46543 xyz
  end
  begin
    id 10
    name HEad
    direction -0.0472656 0.980052 0.19304
    length 5.12695
    axis -0.000934954 0.0245693 1.46543 xyz
    dof rx ry rz
  end
  begin
    id 11
    name LeftShoulder1Dummy
    direction 0.953098 0.301717 -0.023914
    length 3.68488
    axis -0.000934958 0.0245693 1.46543 xyz
  end
  begin
    id 12
    name LeftShoulder1
    direction 0.962466 0.271167 0.0112566
    length 3.13809
    axis -0.000934958 0.0245693 1.46543 xyz
    dof rx ry rz
  end
  begin
    id 13
    name LeftArm
    direction 0.999943 0.00455037 -0.00961766
    length 11.3419
    axis -23.1648 0.685459 1.22814 xyz
    dof rx ry rz
  end
  begin
    id 14
    name LeftForeArm
    direction 0.999332 0.0131969 0.0340885
    length 8.70632
    axis -9.90633 0.618216 0.0826942 xyz
    dof rx ry rz
  end
  begin
    id 15
    name LeftHand
    direction 0.994373 -0.0366703 0.0993905
    length 5.32135
    axis 0.00675269 0.680415 0.445699 xyz
    dof rx ry rz
  end
  begin
    id 16
    name RightShoulderDummy
    direction -0.967298 0.252589 -0.0230903
    length 3.68488
    axis -0.000934958 0.0245693 1.46543 xyz
  end
  begin
    id 17
    name RightShoulder
    direction -0.975062 0.221602 0.0120823
    length 3.13809
    axis 0.216257 0.0246515 1.45863 xyz
    dof rx ry rz
  end
  begin
    id 18
    name RightArm
    direction -0.99886 -0.00851186 -0.0469687
    length 10.3947
    axis -23.196 0.23503 -0.532632 xyz
    dof rx ry rz
  end
  begin
    id 19
    name RightForeArm
    direction -0.99909 0.00114866 0.0426317
    length 8.68355
    axis -9.91764 -0.134943 0.610517 xyz
    dof rx ry rz
  end
  begin
    id 20
    name RightHand
    direction -0.992888 -0.0489538 0.10852
    length 5.28593
    axis -0.00275396 -0.197403 0.246414 xyz
    dof rx ry rz
  end
  begin
    id 21
    name LeftUpLegDummy
    direction 1 -2.30186e-007 -8.31532e-007
    length 4.04083
    axis 0 0 0 xyz
  end
  begin
    id 22
    name LeftUpLeg
    direction -0.000920097 -1 2.79241e-006
    length 17.4221
    axis -3.48782 0.00143434 -0.0532288 xyz
    dof rx ry rz
  end
  begin
    id 23
    name LeftLeg
    direction -0.000920097 -1 2.7912e-006
    length 17.1239
    axis 3.68162 -0.00806512 -0.0529896 xyz
    dof rx ry rz
  end
  begin
    id 24
    name LeftFoot
    direction -2.57845e-005 -3.987e-007 1
    length 6.72091
    axis 3.02372e-005 -0.00147829 -0.214229 xyz
    dof rx ry rz
  end
  begin
    id 25
    name LeftToes
    direction 0.00813577 -0.00488255 0.999955
    length 3.85048
    axis 3.89895e-005 -0.0014783 -0.214229 xyz
    dof rx ry rz
  end
:hierarchy
  begin
    root RightUpLegDummy SpineDummy LeftUpLegDummy
    RightUpLegDummy RightUpLeg
    RightUpLeg RightLeg
    RightLeg RightFoot
    RightFoot RightToes
    SpineDummy Spine
    Spine Spine1
    Spine1 HEadDummy LeftShoulder1Dummy RightShoulderDummy
    HEadDummy HEad
    LeftShoulder1Dummy LeftShoulder1
    LeftShoulder1 LeftArm
    LeftArm LeftForeArm
    LeftForeArm LeftHand
    RightShoulderDummy RightShoulder
    RightShoulder RightArm
    RightArm RightForeArm
    RightForeArm RightHand
    LeftUpLegDummy LeftUpLeg
    LeftUpLeg LeftLeg
    LeftLeg LeftFoot
    LeftFoot LeftToes
  end

:SAMPLES-PER-SECOND 30
:FULLY-SPECIFIED
:DEGREES
92
root  -54.1875 35.0306 30.6723 -171.667 49.2729 179.982
RightUpLeg  -4.00262 -18.2066 -1.35217
RightLeg  2.41439 -3.54526 0.0794525
RightFoot  4.84223 0.0280509 -0.131022
RightToes  -22.0118 -0.0923249 -0.193048
Spine  -2.90527 0.636065 -2.49204
Spine1  -5.64215 0.952557 -3.9923
HEad  -60.8282 -17.082 3.94122
LeftShoulder1  -1.94126e-019 -3.10601e-018 -2.51263e-017
LeftArm  -7.77689 25.3225 -76.8054
LeftForeArm  34.4313 -15.19 -2.61917
LeftHand  -0.343988 -0.744294 6.62607
RightShoulder  -4.96962e-017 0 -2.36833e-017
RightArm  -25.0668 15.2205 43.0287
RightForeArm  44.4715 43.327 7.68041
RightHand  -0.219339 -1.39132 -6.22374
LeftUpLeg  -4.73472 -1.09072 1.66804
LeftLeg  -0.0556966 13.9393 -0.901541
LeftFoot  8.57508 -0.158844 2.29326
LeftToes  -19.7485 1.48321e-006 1.01846e-007
93
root  -54.1958 35.0208 30.6338 -171.688 48.7521 179.923
RightUpLeg  -4.13697 -18.6957 -1.43457
RightLeg  2.86157 -3.57362 0.0522885
RightFoot  4.63499 0.0273507 -0.119918
RightToes  -22.1343 -0.0924373 -0.193048
Spine  -2.96249 0.821307 -2.61826
Spine1  -5.73811 1.2873 -4.23036
HEad  -60.9808 -17.6581 3.24807
LeftShoulder1  -1.94126e-019 -3.10601e-018 -2.51263e-017
LeftArm  -8.05447 24.8291 -76.2647
LeftForeArm  34.7852 -14.5002 -2.50448
LeftHand  -0.348583 -0.701421 6.7569
RightShoulder  -4.96962e-017 0 -2.36833e-017
RightArm  -34.4039 20.6724 35.376
RightForeArm  44.9053 46.6599 8.77951
RightHand  -0.234037 -2.30949 -8.50787
LeftUpLeg  -4.98858 -1.49541 1.61769
LeftLeg  0.329951 13.8396 -0.802691
LeftFoot  8.41155 -0.153434 2.23677
LeftToes  -19.6279 1.48321e-006 1.01846e-007
94
root  -54.1921 35.0162 30.6142 -171.677 48.0218 179.86
RightUpLeg  -4.18572 -19.1775 -1.4581
RightLeg  3.1168 -3.8167 0.0388658
RightFoot  4.448 0.027786 -0.125052
RightToes  -21.9817 -0.0925416 -0.193048
Spine  -2.97605 0.999715 -2.8983
Spine1  -5.78077 1.6515 -4.81928
HEad  -61.4721 -18.0814 3.31805
LeftShoulder1  -1.94126e-019 -3.10601e-018 -2.51263e-017
LeftArm  -8.77631 24.4147 -75.3301
LeftForeArm  35.1477 -15.0127 -2.61152
LeftHand  -0.360236 -0.6313 7.05504
RightShoulder  -4.96962e-017 0 -2.36833e-017
RightArm  -44.447 25.1188 28.4219
RightForeArm  45.1502 48.7506 9.53629
RightHand  -0.166584 -3.83228 -11.4494
LeftUpLeg  -5.19564 -2.01986 1.61882
LeftLeg  0.472552 13.6456 -0.757929
LeftFoot  8.39395 -0.1497 2.20134
LeftToes  -19.5743 1.48321e-006 1.01846e-007
95
root  -54.1787 35.0154 30.6126 -171.555 47.1637 179.888
RightUpLeg  -4.1769 -19.7388 -1.36722
RightLeg  3.17778 -4.10347 0.0373957
RightFoot  4.41419 0.0291517 -0.143487
RightToes  -22.1964 -0.0926385 -0.193048
Spine  -2.94461 1.06493 -3.28008
Spine1  -5.74597 1.80422 -5.62399
HEad  -62.2218 -18.2003 3.88792
LeftShoulder1  -1.94126e-019 -3.10601e-018 -2.51263e-017
LeftArm  -9.63746 24.1321 -74.0625
LeftForeArm  35.289 -16.5 -2.90087
LeftHand  -0.368843 -0.689157 7.15789
RightShoulder  -4.96962e-017 0 -2.36833e-017
RightArm  -54.9302 28.8335 23.4903
RightForeArm  46.1179 50.3949 10.1187
RightHand  -0.0909054 -4.78778 -14.8973
LeftUpLeg  -5.37133 -2.69704 1.73104
LeftLeg  0.400528 13.4723 -0.765301
LeftFoot  8.52565 -0.148863 2.2047
LeftToes  -19.7802 1.48321e-006 1.01846e-007
96
root  -54.1563 35.0159 30.6151 -171.475 46.6262 179.874
RightUpLeg  -4.27024 -20.081 -1.30653
RightLeg  3.38942 -4.2846 0.0232486
RightFoot  4.26786 0.0293533 -0.145293
RightToes  -22.1737 -0.0927283 -0.193048
Spine  -2.91991 1.19966 -3.44029
Spine1  -5.73155 2.09795 -5.98529
HEad  -62.9889 -18.2492 3.87865
LeftShoulder1  -1.94126e-019 -3.10601e-018 -2.51263e-017
LeftArm  -10.616 23.8578 -73.5632
LeftForeArm  35.5783 -16.8317 -2.96477
LeftHand  -0.363839 -0.86674 6.87651
RightShoulder  -4.96962e-017 0 -2.36833e-017
RightArm  -64.1138 32.6249 19.5872
RightForeArm  46.3326 52.32 10.9294
RightHand  -0.0688089 -5.01869 -17.8445
LeftUpLeg  -5.5459 -2.95061 1.79379
LeftLeg  0.454687 13.1961 -0.737506
LeftFoot  8.55618 -0.145468 2.1669
LeftToes  -19.8884 1.48321e-006 1.01846e-007
97
root  -54.1285 35.017 30.629 -171.431 46.4048 179.886
RightUpLeg  -4.33809 -20.1339 -1.23767
RightLeg  3.56201 -4.42856 0.0107153
RightFoot  4.15295 0.0295484 -0.147011
RightToes  -22.0125 -0.0928114 -0.193048
Spine  -2.96067 1.34409 -3.61534
Spine1  -5.83376 2.38922 -6.36687
HEad  -63.463 -18.2968 4.00207
LeftShoulder1  -1.94126e-019 -3.10601e-018 -2.51263e-017
LeftArm  -10.6815 23.8637 -73.1312
LeftForeArm  35.3823 -17.1251 -3.0214
LeftHand  -0.369831 -0.876994 6.97752
RightShoulder  -4.96962e-017 0 -2.36833e-017
RightArm  -70.466 36.5076 17.4921
RightForeArm  45.967 53.795 11.6479
RightHand  0.0354917 -5.63335 -21.2619
LeftUpLeg  -5.61953 -3.02926 1.88128
LeftLeg  0.485212 13.1053 -0.725584
LeftFoot  7.99756 -0.135202 2.02206
LeftToes  -17.2742 1.48321e-006 1.01846e-007
98
root  -54.0989 35.0111 30.6627 -171.328 46.7609 -179.995
RightUpLeg  -4.50687 -19.6701 -1.08797
RightLeg  3.7604 -4.52558 -0.00468263
RightFoot  4.0519 0.0296674 -0.147646
RightToes  -21.9919 -0.0928883 -0.193048
Spine  -2.97318 1.55648 -3.77284
Spine1  -5.85231 2.7859 -6.69054
HEad  -63.9475 -18.627 4.42322
LeftShoulder1  -1.94126e-019 -3.10601e-018 -2.51263e-017
LeftArm  -10.0944 23.8274 -72.8499
LeftForeArm  35.0236 -17.2633 -3.05092
LeftHand  -0.368088 -0.794268 7.03094
RightShoulder  -4.96962e-017 0 -2.36833e-017
RightArm  -72.7639 40.4317 16.9013
RightForeArm  46.4465 54.0447 11.74
RightHand  0.108156 -5.89067 -25.8604
LeftUpLeg  -5.6278 -2.67851 2.00516
LeftLeg  0.574744 13.1156 -0.705777
LeftFoot  7.96057 -0.133578 2.01265
LeftToes  -17.626 1.48321e-006 1.01846e-007
99
root  -54.0678 35.0057 30.6838 -171.173 47.189 -179.759
RightUpLeg  -4.58841 -19.6149 -0.899339
RightLeg  3.85446 -4.16828 -0.0110996
RightFoot  4.02885 0.0283489 -0.127742
RightToes  -21.8178 -0.0929594 -0.193048
Spine  -3.04798 1.59536 -3.92062
Spine1  -5.95313 2.80056 -6.9685
HEad  -64.2174 -18.7799 5.17742
LeftShoulder1  -1.94126e-019 -3.10601e-018 -2.51263e-017
LeftArm  -9.44604 24.0185 -72.5898
LeftForeArm  35.0781 -17.3675 -3.08071
LeftHand  -0.331375 -0.47523 6.65505
RightShoulder  -4.96962e-017 0 -2.36833e-017
RightArm  -69.3133 43.8959 18.1817
RightForeArm  47.0204 52.8052 11.1171
RightHand  0.381307 -6.81096 -30.4912
LeftUpLeg  -5.55967 -2.48807 2.17181
LeftLeg  0.667966 13.3552 -0.696857
LeftFoot  8.33729 -0.1401 2.13216
LeftToes  -20.2394 1.48321e-006 1.01846e-007
